<?xml version="1.0" encoding="UTF-8"?>
<svg width="41px" height="105px" viewBox="0 0 41 105" version="1.1" xmlns="http://www.w3.org/2000/svg" xmlns:xlink="http://www.w3.org/1999/xlink">
    <!-- Generator: Sketch 41.2 (35397) - http://www.bohemiancoding.com/sketch -->
    <title>8_Black</title>
    <desc>Created with Sketch.</desc>
    <defs></defs>
    <g id="Page-1" stroke="none" stroke-width="1" fill="none" fill-rule="evenodd">
        <g id="8_Black" fill="#231F20">
            <g id="Layer_1">
                <path d="M40.1527778,10.6944444 L20.1736111,0 L20.1736111,0 L0.194444444,10.6944444 L0.194444444,41.7083333 L15.5555556,49.9236111 L0.194444444,58.1388889 L0.194444444,94.1111111 L20.1736111,104.951389 L40.1527778,94.1111111 L40.1527778,58.1388889 L24.7916667,49.9236111 L40.1527778,41.7083333 L40.1527778,10.6944444 Z M28,64.4097222 L28,88.2291667 L20.1736111,92.4583333 L12.4930556,88.375 L12.4930556,64.2638889 L20.1736111,60.1319444 L28,64.4097222 Z M28,35.5347222 L20.1736111,39.7152778 L12.5416667,35.6319444 L12.5416667,15.7013889 L20.3680556,11.4236111 L28.0486111,15.5555556 L28.0486111,35.5347222 L28,35.5347222 Z" id="Shape"></path>
            </g>
        </g>
    </g>
</svg>