<?xml version="1.0" encoding="UTF-8"?>
<svg width="116px" height="106px" viewBox="0 0 116 106" version="1.1" xmlns="http://www.w3.org/2000/svg" xmlns:xlink="http://www.w3.org/1999/xlink">
    <!-- Generator: Sketch 41.2 (35397) - http://www.bohemiancoding.com/sketch -->
    <title>Combined Shape</title>
    <desc>Created with Sketch.</desc>
    <defs></defs>
    <g id="Page-1" stroke="none" stroke-width="1" fill="none" fill-rule="evenodd">
        <path d="M102.930058,26.9788568 L58.069942,1.07885683 C56.2512887,0.0288568297 53.842443,0.601100016 52.742443,2.5063559 L11.642443,73.6936441 C10.592443,75.5122974 11.1646862,77.9211432 13.069942,79.0211432 L57.930058,104.921143 C59.7487113,105.971143 62.157557,105.3989 63.257557,103.493644 L104.357557,32.3063559 C105.457557,30.4011 104.748711,28.0288568 102.930058,26.9788568 Z M36.35,90.4989 C35.224167,89.8489 34.8581416,88.4828746 35.5081416,87.3570416 C36.1581416,86.2312085 37.524167,85.8651831 38.65,86.5151831 C39.775833,87.1651831 40.1418584,88.5312085 39.4918584,89.6570416 C38.8418584,90.7828746 37.475833,91.1489 36.35,90.4989 Z M64.0621088,98.3001196 L15.7378912,70.4001196 L51.7878912,7.959688 L100.025506,35.809688 L63.9755062,98.2501196 L64.0621088,98.3001196 Z M12.715102,46.54 L12.715102,48.2738776 L17.7,43 L10.4032653,43.1444898 L11.8481633,44.5171429 C9.60857143,46.0342857 6.79102041,48.7073469 4.47918367,52.9697959 C1.51714286,58.4604082 -1.98578896e-15,65.6126531 -4.07378676e-15,74.137551 L2.16734694,74.137551 C2.23959184,57.3044898 8.30816327,49.7910204 12.715102,46.54 Z M102.984898,61.597551 L102.984898,59.8636735 L98,65.137551 L105.296735,64.9930612 L103.851837,63.6204082 C106.091429,62.1032653 108.90898,59.4302041 111.220816,55.1677551 C114.182857,49.6771429 115.7,42.524898 115.7,34 L113.532653,34 C113.460408,50.8330612 107.391837,58.3465306 102.984898,61.597551 Z" id="Combined-Shape" fill="#FFFFFF"></path>
    </g>
</svg>